<?xml version="1.0" encoding="utf-8"?>
<!-- Generator: Adobe Illustrator 17.0.0, SVG Export Plug-In . SVG Version: 6.00 Build 0)  -->
<!DOCTYPE svg PUBLIC "-//W3C//DTD SVG 1.1//EN" "http://www.w3.org/Graphics/SVG/1.1/DTD/svg11.dtd">
<svg version="1.1" id="Layer_1" xmlns="http://www.w3.org/2000/svg" xmlns:xlink="http://www.w3.org/1999/xlink" x="0px" y="0px"
	 width="200px" height="200px" viewBox="0 0 200 200" enable-background="new 0 0 200 200" xml:space="preserve">
<g>
	
		<linearGradient id="SVGID_1_" gradientUnits="userSpaceOnUse" x1="262.7402" y1="-270.1084" x2="268.4282" y2="-270.1084" gradientTransform="matrix(1 0 0 -1 -197.5 -120)">
		<stop  offset="0" style="stop-color:#23BAED"/>
		<stop  offset="1" style="stop-color:#3CC6EE"/>
	</linearGradient>
	<path fill="url(#SVGID_1_)" d="M68.082,146.566c-0.922,0-1.641,0.369-2.154,1.111c-0.458,0.653-0.688,1.462-0.688,2.418
		c0,0.952,0.229,1.769,0.688,2.443c0.514,0.742,1.232,1.112,2.154,1.112c0.922,0,1.64-0.369,2.154-1.112
		c0.458-0.673,0.693-1.49,0.693-2.443c0-0.957-0.234-1.765-0.693-2.418C69.721,146.935,69.003,146.566,68.082,146.566z"/>
	
		<linearGradient id="SVGID_2_" gradientUnits="userSpaceOnUse" x1="320.1377" y1="-270.1084" x2="325.8257" y2="-270.1084" gradientTransform="matrix(1 0 0 -1 -197.5 -120)">
		<stop  offset="0" style="stop-color:#23BAED"/>
		<stop  offset="1" style="stop-color:#3CC6EE"/>
	</linearGradient>
	<path fill="url(#SVGID_2_)" d="M125.484,146.566c-0.923,0-1.641,0.369-2.154,1.111c-0.463,0.653-0.693,1.462-0.693,2.418
		c0,0.952,0.223,1.769,0.667,2.443c0.529,0.742,1.257,1.112,2.18,1.112c0.922,0,1.639-0.369,2.153-1.112
		c0.459-0.673,0.689-1.49,0.689-2.443c0-0.957-0.23-1.765-0.689-2.418C127.104,146.935,126.385,146.566,125.484,146.566z"/>
	
		<linearGradient id="SVGID_3_" gradientUnits="userSpaceOnUse" x1="247.6679" y1="-270.1084" x2="253.3568" y2="-270.1084" gradientTransform="matrix(1 0 0 -1 -197.5 -120)">
		<stop  offset="0" style="stop-color:#23BAED"/>
		<stop  offset="1" style="stop-color:#3CC6EE"/>
	</linearGradient>
	<path fill="url(#SVGID_3_)" d="M53.015,146.566c-0.923,0-1.641,0.369-2.154,1.111c-0.464,0.653-0.693,1.462-0.693,2.418
		c0,0.952,0.229,1.769,0.693,2.443c0.514,0.742,1.232,1.112,2.154,1.112c0.922,0,1.641-0.369,2.154-1.112
		c0.459-0.673,0.688-1.49,0.688-2.443c0-0.957-0.229-1.765-0.688-2.418C54.655,146.935,53.937,146.566,53.015,146.566z"/>
	
		<linearGradient id="SVGID_4_" gradientUnits="userSpaceOnUse" x1="207.5" y1="-220" x2="387.5" y2="-220" gradientTransform="matrix(1 0 0 -1 -197.5 -120)">
		<stop  offset="0" style="stop-color:#23BAED"/>
		<stop  offset="1" style="stop-color:#3CC6EE"/>
	</linearGradient>
	<path fill="url(#SVGID_4_)" d="M100,10c-49.705,0-90,40.295-90,90s40.295,90,90,90c49.706,0,90-40.295,90-90S149.705,10,100,10z
		 M123.817,68.882c51.005,0,28.582,11.352-2.921,39.473c9.986-17.369,44.312-32.744-11.953-31.875
		C55.017,77.296,51.829,60.879,46,52.128C59.852,66.704,72.796,68.882,123.817,68.882z M82.307,122.171
		c0,4.251-3.451,7.702-7.704,7.702c-4.269,0-7.72-3.451-7.72-7.702c0-4.269,3.451-7.722,7.72-7.722
		C78.855,114.448,82.307,117.901,82.307,122.171z M58.135,155.43c-1.317,1.51-3.027,2.268-5.12,2.268
		c-2.099,0-3.803-0.758-5.12-2.268c-1.262-1.441-1.895-3.221-1.895-5.334c0-2.119,0.634-3.899,1.895-5.334
		c1.331-1.496,3.041-2.244,5.12-2.244c2.093,0,3.803,0.747,5.12,2.244c1.262,1.436,1.89,3.216,1.89,5.334
		C60.025,152.21,59.397,153.99,58.135,155.43z M73.385,155.271c-1.221,1.616-2.796,2.428-4.712,2.428
		c-1.352,0-2.497-0.393-3.435-1.172c0,0.179,0.02,0.613,0.059,1.306c0.04,0.697,0.059,1.265,0.059,1.715
		c0,2.479-0.738,3.714-2.213,3.714c-0.604,0-1.097-0.214-1.49-0.638c-0.389-0.428-0.584-0.942-0.584-1.55v-16.118
		c0-0.589,0.2-1.097,0.598-1.526c0.399-0.424,0.893-0.638,1.48-0.638c0.887,0,1.535,0.443,1.944,1.326
		c0.872-1.066,2.064-1.6,3.575-1.6c1.92,0,3.49,0.797,4.716,2.398c1.139,1.48,1.712,3.206,1.712,5.18
		C75.096,152.07,74.527,153.795,73.385,155.271z M81.83,153.331c0.603,0.335,1.341,0.505,2.213,0.505
		c0.679,0,1.49-0.225,2.443-0.669c0.951-0.449,1.565-0.669,1.83-0.669c0.483,0,0.892,0.175,1.231,0.534
		c0.334,0.355,0.504,0.783,0.504,1.277c0,1.141-0.852,2.03-2.558,2.668c-1.301,0.479-2.622,0.723-3.973,0.723
		c-2.174,0-3.928-0.723-5.27-2.164s-2.014-3.251-2.014-5.44c0-2.084,0.698-3.864,2.093-5.349c1.391-1.486,3.121-2.228,5.185-2.228
		c1.92,0,3.524,0.703,4.811,2.109c1.286,1.406,1.935,3.081,1.935,5.021c0,0.697-0.165,1.176-0.494,1.445
		c-0.329,0.265-0.842,0.399-1.535,0.399h-7.523C80.709,152.29,81.083,152.903,81.83,153.331z M104.265,155.236
		c0,0.608-0.194,1.121-0.583,1.551c-0.394,0.424-0.887,0.638-1.49,0.638c-1.456,0-2.184-1.156-2.184-3.465
		c0-0.444,0.03-1.141,0.09-2.104c0.065-0.958,0.094-1.66,0.094-2.104c0-2.448-0.793-3.675-2.373-3.675s-2.368,1.226-2.368,3.675
		c0,0.444,0.025,1.147,0.07,2.104c0.049,0.962,0.075,1.66,0.075,2.104c0,2.309-0.717,3.465-2.154,3.465
		c-0.604,0-1.097-0.214-1.486-0.638c-0.394-0.429-0.589-0.942-0.589-1.551v-10.284c0-0.604,0.194-1.117,0.589-1.531
		c0.389-0.419,0.887-0.627,1.49-0.627c0.997,0,1.69,0.443,2.079,1.326c0.673-1.066,1.865-1.6,3.569-1.6
		c1.58,0,2.837,0.419,3.759,1.251c0.942,0.893,1.411,2.119,1.411,3.68V155.236z M110.254,152.51
		c0.513,0.762,1.236,1.141,2.158,1.141c0.41,0,0.967-0.12,1.68-0.365c0.714-0.238,1.228-0.364,1.545-0.364
		c0.464,0,0.862,0.199,1.202,0.589c0.334,0.394,0.502,0.818,0.502,1.282c0,0.942-0.612,1.689-1.839,2.239
		c-0.977,0.443-2.009,0.668-3.096,0.668c-2.1,0-3.803-0.758-5.12-2.268c-1.261-1.441-1.894-3.221-1.894-5.334
		c0-2.119,0.643-3.909,1.934-5.375c1.291-1.47,2.981-2.203,5.08-2.203c1.211,0,2.254,0.179,3.121,0.534
		c1.211,0.479,1.813,1.226,1.813,2.244c0,0.513-0.158,0.967-0.479,1.361c-0.319,0.389-0.727,0.589-1.226,0.589
		c-0.34,0-0.828-0.114-1.466-0.338c-0.638-0.229-1.146-0.34-1.519-0.34c-0.993,0-1.765,0.354-2.318,1.062
		c-0.514,0.638-0.773,1.456-0.773,2.468C109.56,151.048,109.789,151.856,110.254,152.51z M109.736,129.872
		c-4.265,0-7.72-3.451-7.72-7.702c0-4.269,3.455-7.722,7.72-7.722c4.255,0,7.704,3.453,7.704,7.722
		C117.44,126.421,113.99,129.872,109.736,129.872z M132.494,155.236L132.494,155.236c-0.001,0.608-0.194,1.121-0.584,1.551
		c-0.393,0.424-0.892,0.638-1.496,0.638c-0.907,0-1.554-0.444-1.944-1.327c-0.872,1.067-2.064,1.6-3.575,1.6
		c-1.934,0-3.519-0.813-4.747-2.428c-1.117-1.476-1.679-3.2-1.679-5.175s0.562-3.699,1.679-5.18
		c1.247-1.601,2.827-2.398,4.747-2.398c1.51,0,2.703,0.534,3.575,1.6c0.389-0.883,1.037-1.326,1.944-1.326
		c0.589,0,1.083,0.214,1.481,0.638c0.398,0.428,0.598,0.932,0.598,1.521L132.494,155.236L132.494,155.236z M141.826,146.516
		c-0.803,0.27-1.601,0.544-2.398,0.828c-0.873,0.499-1.307,1.426-1.307,2.772v5.119c0,0.608-0.2,1.121-0.588,1.551
		c-0.394,0.424-0.893,0.638-1.496,0.638c-0.608,0-1.107-0.214-1.495-0.638c-0.394-0.429-0.589-0.942-0.589-1.551v-10.284
		c0-0.604,0.194-1.117,0.583-1.531c0.393-0.419,0.893-0.627,1.496-0.627c0.997,0,1.689,0.443,2.078,1.326
		c0.893-1.066,1.85-1.6,2.882-1.6c0.588,0,1.092,0.214,1.51,0.638c0.414,0.428,0.624,0.937,0.624,1.52
		C143.127,145.569,142.693,146.183,141.826,146.516z M152.914,146.626c-0.355,0.125-1.098,0.189-2.229,0.189v8.42
		c0,0.608-0.2,1.121-0.588,1.551c-0.394,0.424-0.893,0.638-1.496,0.638c-0.588,0-1.087-0.214-1.486-0.638
		c-0.398-0.429-0.598-0.942-0.598-1.551v-8.42c-0.858,0-1.481-0.11-1.874-0.323c-0.538-0.299-0.804-0.842-0.804-1.625
		c0-0.782,0.274-1.316,0.828-1.6c0.374-0.21,0.993-0.319,1.85-0.319v-0.838v-0.947c0-2.099,0.693-3.145,2.083-3.145
		c1.386,0,2.084,1.047,2.084,3.145v0.947v0.838c1.131,0,1.874,0.065,2.229,0.189c0.723,0.249,1.086,0.827,1.086,1.73
		C154,145.794,153.635,146.377,152.914,146.626z"/>
	
		<linearGradient id="SVGID_5_" gradientUnits="userSpaceOnUse" x1="278.2094" y1="-267.3395" x2="283.5941" y2="-267.3395" gradientTransform="matrix(1 0 0 -1 -197.5 -120)">
		<stop  offset="0" style="stop-color:#23BAED"/>
		<stop  offset="1" style="stop-color:#3CC6EE"/>
	</linearGradient>
	<path fill="url(#SVGID_5_)" d="M83.401,146.078c-0.658,0-1.272,0.259-1.84,0.782c-0.568,0.524-0.852,1.102-0.852,1.741h5.385
		c-0.021-0.638-0.314-1.217-0.882-1.741C84.642,146.337,84.039,146.078,83.401,146.078z"/>
</g>
</svg>
