<?xml version="1.0" encoding="utf-8"?>
<!-- Generator: Adobe Illustrator 22.0.0, SVG Export Plug-In . SVG Version: 6.00 Build 0)  -->
<svg version="1.1" id="Capa_1" xmlns="http://www.w3.org/2000/svg" xmlns:xlink="http://www.w3.org/1999/xlink" x="0px" y="0px"
	 width="289px" height="293.4px" viewBox="0 0 289 293.4" style="enable-background:new 0 0 289 293.4;" xml:space="preserve">
<g>
	<path d="M37.8,148.9h-2.5c0,63,51,114,114,114s114-51,114-114s-51-114-114-114s-114,51-114,114H37.8h2.5
		c0-30.1,12.2-57.3,31.9-77.1c19.7-19.7,47-31.9,77.1-31.9s57.3,12.2,77.1,31.9c19.7,19.7,31.9,47,31.9,77.1s-12.2,57.3-31.9,77.1
		c-19.7,19.7-47,31.9-77.1,31.9S92,245.7,72.2,226c-19.7-19.7-31.9-47-31.9-77.1H37.8z M46.4,148.9h2.5c0-14.5,3.1-28.4,8.7-40.9
		l-2.3-1l-2.3,0.9l49,134.5l2.3-0.9l1.1-2.3c-16.7-8.1-30.9-20.7-40.8-36.3c-10-15.6-15.7-34.1-15.7-54H46.4h-2.5
		c0,20.8,6.1,40.3,16.5,56.7s25.3,29.6,42.9,38.1l5.6,2.7L55.6,100.3L53,106c-5.9,13.1-9.1,27.7-9.1,42.9H46.4z M149.3,251.7v-2.5
		c-9.9,0-19.4-1.3-28.4-4l-0.7,2.4l2.4,0.8l28.6-83.1l29.2,80l0,0c0.3,0.8,0.6,1.4,0.8,1.8l2.2-1.2l-0.8-2.4
		c-10.4,3.6-21.7,5.6-33.4,5.6L149.3,251.7l-0.1,2.5c12.3,0,24-2.1,35-5.9l2.8-1l-1.4-2.6c-0.3-0.5-0.4-0.8-0.6-1.2l0,0l-34.1-93.3
		l-34,98.8l2.5,0.7c9.5,2.8,19.4,4.2,29.8,4.2L149.3,251.7L149.3,251.7z M232.5,146.9l2.3,0.9c6-14.9,8-27,8-37.7
		c0-3.9-0.2-7.5-0.7-11l-2.5,0.3l-2.2,1.2c7.8,14.3,12.2,30.8,12.2,48.2c0,37-20,69.3-49.8,86.7l1.3,2.2l2.4,0.8l31.4-90.8
		L232.5,146.9l2.3,0.9L232.5,146.9l-2.4-0.8l-33.6,97.2l5.8-3.4c31.3-18.3,52.3-52.2,52.3-91c0-18.3-4.6-35.5-12.8-50.6l-6.4-11.7
		l1.7,13.2c0.4,3.2,0.7,6.6,0.7,10.3c0,10.1-1.9,21.4-7.7,35.9v0.1v0.1L232.5,146.9z M210.3,115.3l-2.2,1.2c1.9,3.4,4,7.1,5.5,11.6
		c1.6,4.4,2.6,9.5,2.6,15.6c0,8.3-2.5,19.2-7.7,32.4v0.1l-8,26.8L165.8,99.8l-2.4,0.8l0.1,2.5c6.3-0.3,11.9-1,11.9-1l0,0
		c0.9-0.1,1.8-0.4,2.6-0.8c1.2-0.6,2.1-1.6,2.7-2.6c0.6-1.1,0.8-2.2,0.8-3.3c0-1.6-0.5-3.3-1.7-4.6c-0.6-0.7-1.3-1.2-2.2-1.6
		s-1.8-0.6-2.8-0.6c-0.2,0-0.3,0-0.5,0l0,0l0,0c0,0-0.3,0-0.7,0.1c-3.3,0.2-17.2,1.2-26.5,1.2c-5,0-11.7-0.3-17.2-0.7
		c-2.7-0.2-5.2-0.3-6.9-0.4c-0.9-0.1-1.6-0.1-2.1-0.1s-0.7-0.1-0.7-0.1l0,0l0,0c-0.2,0-0.3,0-0.5,0c-1,0-2,0.2-2.9,0.6
		c-1.3,0.6-2.3,1.6-2.9,2.7s-0.9,2.3-0.9,3.6c0,1.5,0.5,3.1,1.5,4.3c0.5,0.6,1.2,1.2,2,1.6s1.7,0.6,2.6,0.7l0.2-2.5l-0.3,2.5
		c0,0,5.3,0.6,11,1l0.1-2.5l-2.3,0.9l15.7,43.1l-19.9,59.6l-35-104.4l-2.4,0.8l0.1,2.5c6.3-0.3,11.9-1,11.9-1l0,0
		c0.9-0.1,1.8-0.4,2.6-0.8c1.2-0.6,2.1-1.6,2.6-2.6c0.6-1,0.8-2.2,0.8-3.3c0-1.6-0.5-3.3-1.7-4.6c-0.6-0.7-1.3-1.2-2.2-1.6
		c-0.9-0.4-1.8-0.6-2.8-0.6c-0.1,0-0.3,0-0.4,0l0,0l0,0c0,0-0.3,0-0.7,0.1C93.1,89,79.2,90,69.9,90c-1.9,0-4.2,0-6.5-0.1l-0.1,2.5
		l2.1,1.4c17.9-27.3,48.8-45.2,83.9-45.2c26.1,0,49.9,10,67.8,26.4l1.7-1.8l0.2-2.5c-0.2,0-0.7-0.1-1.5-0.1c-2.9,0-5.6,0.6-8,1.8
		c-3.6,1.7-6.6,4.5-8.6,7.8s-3.1,7.2-3.1,11.2l0,0l0,0c0,4.7,1.4,9,3.3,13.1c2,4.1,4.5,8.1,7.1,12.3L210.3,115.3l-2.2,1.2
		L210.3,115.3l2.1-1.3c-2.6-4.3-5.1-8.1-6.9-11.8c-1.8-3.7-2.8-7.2-2.8-11l0,0l0,0c0-4.1,1.5-8.1,4.2-11c1.3-1.5,2.9-2.6,4.6-3.5
		c1.8-0.8,3.8-1.3,5.9-1.3c0.1,0,0.5,0.1,1.1,0.1l7.1,0.5l-5.2-4.8c-18.7-17.2-43.7-27.7-71.2-27.7c-36.7,0-69.2,18.9-88,47.5
		l-2.4,3.7l4.4,0.2C65.7,95,68,95,69.9,95c5.5,0,12.4-0.3,17.9-0.7c5.5-0.3,9.7-0.7,9.7-0.7l-0.2-2.5l0.1,2.5h0.2
		c0.4,0,0.6,0.1,0.8,0.1c0.3,0.1,0.5,0.3,0.6,0.6c0.2,0.3,0.3,0.7,0.3,1c0,0.5-0.1,0.9-0.4,1.2c-0.1,0.1-0.3,0.3-0.4,0.4
		c-0.2,0.1-0.5,0.2-0.8,0.2l0,0c0,0-0.1,0-0.2,0c-1.1,0.1-6,0.6-11.4,0.9l-3.3,0.2l40.9,121.6l25.2-75.4L132,98.2l-1.6-0.1
		c-2.7-0.2-5.4-0.4-7.4-0.6c-1-0.1-1.8-0.2-2.4-0.3c-0.3,0-0.5-0.1-0.7-0.1s-0.2,0-0.2,0h-0.1h-0.1c-0.3,0-0.6-0.1-0.7-0.2
		c-0.2-0.1-0.4-0.3-0.5-0.5s-0.2-0.6-0.2-0.9c0-0.5,0.2-1.1,0.5-1.4c0.1-0.2,0.3-0.3,0.5-0.4s0.4-0.1,0.8-0.1h0.2l0.1-2.5l-0.2,2.5
		c0,0,4.3,0.3,9.8,0.7c5.5,0.3,12.3,0.7,17.5,0.7c5.5,0,12.4-0.3,17.9-0.7c5.5-0.3,9.7-0.7,9.7-0.7l-0.2-2.5l0.1,2.5h0.2
		c0.4,0,0.6,0.1,0.8,0.2c0.3,0.1,0.5,0.3,0.6,0.6c0.2,0.3,0.3,0.6,0.3,1c0,0.5-0.1,0.9-0.4,1.2c-0.1,0.1-0.3,0.3-0.5,0.4
		s-0.5,0.2-0.8,0.2l0,0c0,0-0.1,0-0.2,0c-1.1,0.1-6,0.7-11.4,0.9l-3.3,0.2l40.8,121.1l12.5-41.8l-2.4-0.7l2.3,0.9
		c5.3-13.5,8-24.9,8-34.2c0-6.6-1.2-12.3-2.9-17.2c-1.7-4.9-3.9-8.9-5.9-12.4l0,0l0,0L210.3,115.3z"/>
	<path d="M595.2,103.1c-2.4-5.3-6.8-5.6-8.4-5.6c-5.2,0-9,3.2-9,8.6c0,1.6,0.2,3,1.4,4.5c1.4,1.7,3.8,2.9,7.5,4.5
		c2.9,1.3,5,2.2,5,5.1c0,2.3-1.6,4.9-5,4.9c-3.8,0-5.6-3.4-6.2-5l-4.6,1.9c2.6,7.7,9.5,7.8,10.7,7.8c5.9,0,10.6-3.6,10.6-10.1
		c0-1.7-0.3-3.3-1.6-5c-1.2-1.5-3.3-2.9-7.7-4.7c-3.5-1.5-5-2.1-5-4.4c0-2.4,1.8-3.5,3.7-3.5c2,0,3.6,1.3,4.3,3.1L595.2,103.1z
		 M569.1,103.1c-2.4-5.3-6.8-5.6-8.4-5.6c-5.2,0-9,3.2-9,8.6c0,1.6,0.2,3,1.4,4.5c1.4,1.7,3.8,2.9,7.5,4.5c2.9,1.3,5,2.2,5,5.1
		c0,2.3-1.6,4.9-5,4.9c-3.8,0-5.6-3.4-6.2-5l-4.6,1.9c2.6,7.7,9.5,7.8,10.7,7.8c5.9,0,10.6-3.6,10.6-10.1c0-1.7-0.3-3.3-1.6-5
		c-1.2-1.5-3.3-2.9-7.7-4.7c-3.5-1.5-5-2.1-5-4.4c0-2.4,1.8-3.5,3.7-3.5c2,0,3.6,1.3,4.3,3.1L569.1,103.1z M520.4,110.3
		c0.8-4.6,4.5-8,9-8s8.1,3.2,9,8H520.4z M539.3,118.7c-0.7,1.5-1.8,3-3.2,4.2c-1.8,1.5-3.8,2.2-6.3,2.2c-5.3,0-9.7-4.1-9.8-10.4h24
		c0.1-4.1-1-8.8-2.9-11.5s-5.6-5.6-11.6-5.6c-9.3,0-14.9,7.1-14.9,16.3c0,11.4,7.8,16.1,15.2,16.1c3.9,0,7.4-1.3,10.2-3.8
		c1.6-1.4,2.9-3.3,3.8-5L539.3,118.7z M496.4,129h5.3v-16.2c0-5,0.9-7.1,1.8-8.3c0.8-1,2.1-1.9,4.3-1.9c0.8,0,1.9,0.2,3.1,1l2.5-4.8
		c-1.3-0.7-3.1-1.3-4.7-1.3c-4.1,0-6.4,3.3-7,4.1v-3.3h-5.3L496.4,129L496.4,129z M469.4,84.8h4.1c3.6,0,10.9,0.7,10.9,8.6
		c0,5.7-3.9,9-10.4,9h-4.5V84.8H469.4z M463.9,79.7V129h5.5v-21.5h4.8c11.3,0,15.6-6.9,15.6-13.8c0-3.1-0.9-7.5-4.5-10.6
		c-3.3-2.9-7.5-3.5-12.4-3.5L463.9,79.7L463.9,79.7z M437.3,102.3c4.7,0,10.2,3.5,10.2,11.4c0,6.1-3.7,11.5-10.2,11.5
		c-6.4,0-10.1-5-10.1-11.5C427.2,106.2,432,102.3,437.3,102.3z M447.2,102.7c-1.4-1.9-4.6-5.1-10.5-5.1c-7.8,0-15,5.5-15,16.1
		c0,10.8,7.2,16.3,15,16.3c5.4,0,8.7-2.9,10.5-5.2v4.3h5.3v-54h-5.3V102.7z M403.5,129h5.3v-16.2c0-5,0.9-7.1,1.8-8.3
		c0.8-1,2.1-1.9,4.3-1.9c0.8,0,1.9,0.2,3.1,1l2.5-4.8c-1.3-0.7-3.1-1.3-4.7-1.3c-4.1,0-6.4,3.3-7,4.1v-3.3h-5.3L403.5,129L403.5,129
		z M379.1,102.3c5.6,0,10.8,3.9,10.8,11.5c0,7.5-5.3,11.4-10.8,11.4s-10.8-3.8-10.8-11.4C368.3,106.3,373.5,102.3,379.1,102.3z
		 M379.1,129.9c9.3,0,16.3-6.8,16.3-16.1s-6.9-16.2-16.3-16.2s-16.3,6.9-16.3,16.2C362.8,123.1,369.8,129.9,379.1,129.9z
		 M292.4,79.7l18.9,52l15.5-39.5l14.5,39.5l20.7-52h-6.1l-14.4,37L327,77.1l-15.5,39.5l-13-37L292.4,79.7L292.4,79.7z"/>
	<path d="M1110,192v-4.9h-5.3V176h-5.3v11.1h-3.3v4.9h3.3v25.8h5.3V192H1110z M1064.4,217.9h5.3v-16.1c0-2.2,0.1-5.8,2.2-8.3
		c1.6-1.9,3.6-2.4,5.4-2.4c2.4,0,4,0.9,5,2.2c1.3,1.6,1.4,3.8,1.4,5.6v18.9h5.3v-19c0-3.4-0.2-5.9-1.8-8.2c-1.9-2.7-5.2-4.2-8.8-4.2
		c-5.1,0-7.8,3-8.8,4.3v-3.6h-5.3v30.8H1064.4z M1032.8,199.1c0.8-4.6,4.5-8,9-8s8.1,3.2,9,8H1032.8z M1051.6,207.6
		c-0.7,1.5-1.8,3-3.2,4.2c-1.8,1.5-3.8,2.2-6.3,2.2c-5.3,0-9.7-4.1-9.8-10.4h23.9c0.1-4.1-1-8.8-2.9-11.5s-5.6-5.6-11.6-5.6
		c-9.3,0-14.9,7.1-14.9,16.3c0,11.4,7.8,16.1,15.2,16.1c3.9,0,7.4-1.3,10.2-3.8c1.6-1.4,2.9-3.3,3.8-5L1051.6,207.6z M978.1,217.9
		h5.3v-16.7c0-3.7,0.7-10,6.7-10c5.6,0,5.6,6.4,5.6,8.5v18.2h5.3v-17.1c0-3.7,0.7-9.6,6.8-9.6c5,0,5.5,4.6,5.5,8.1V218h5.3v-19.5
		c0-4.4-0.9-12-10-12c-2.1,0-6.3,0.3-9.3,5c-0.6-1-2.8-5-8.4-5c-3.3,0-5.9,1.5-7.6,4v-3.3H978v30.7H978.1z M954.5,214
		c-6.3,0-10.3-5.1-10.3-11.4c0-7.4,5.3-11.5,10.2-11.5c5,0,10.1,4,10.1,11.5C964.5,208.8,960.7,214,954.5,214z M944.5,213.6
		c2.3,3,5.8,5.2,10.7,5.2c9.3,0,14.7-7.6,14.7-16.1c0-8.3-5.3-16.3-15-16.3c-2.2,0-6.9,0.5-10.5,5v-4.3h-5.3v47.7h5.3L944.5,213.6
		L944.5,213.6z M914.8,191.1c5.6,0,10.8,3.9,10.8,11.5c0,7.5-5.3,11.4-10.8,11.4s-10.8-3.8-10.8-11.4
		C904,195.1,909.2,191.1,914.8,191.1z M914.8,218.7c9.3,0,16.3-6.8,16.3-16.1s-6.9-16.2-16.3-16.2s-16.3,6.9-16.3,16.2
		S905.5,218.7,914.8,218.7z M885,163.9v54h5.3v-54H885z M853.3,199.1c0.8-4.6,4.5-8,9-8s8.1,3.2,9,8H853.3z M872.2,207.6
		c-0.7,1.5-1.8,3-3.2,4.2c-1.8,1.5-3.8,2.2-6.3,2.2c-5.3,0-9.7-4.1-9.8-10.4h23.9c0.1-4.1-1-8.8-2.9-11.5s-5.6-5.6-11.6-5.6
		c-9.3,0-14.9,7.1-14.9,16.3c0,11.4,7.8,16.1,15.2,16.1c3.9,0,7.4-1.3,10.2-3.8c1.6-1.4,2.9-3.3,3.8-5L872.2,207.6z M813.6,187.1
		l15.1,32.7l15.1-32.7h-5.9l-9.2,20.7l-9.2-20.7H813.6z M786.4,199.1c0.8-4.6,4.5-8,9-8s8.1,3.2,9,8H786.4z M805.2,207.6
		c-0.7,1.5-1.8,3-3.2,4.2c-1.8,1.5-3.8,2.2-6.3,2.2c-5.3,0-9.7-4.1-9.8-10.4h23.9c0.1-4.1-1-8.8-2.9-11.5s-5.6-5.6-11.6-5.6
		c-9.3,0-14.9,7.1-14.9,16.3c0,11.4,7.8,16.1,15.2,16.1c3.9,0,7.4-1.3,10.2-3.8c1.6-1.4,2.9-3.3,3.8-5L805.2,207.6z M742.5,173.7
		h4.8c12.5,0,20.8,7.7,20.8,19.5c0,7-3,11.9-6.7,15c-4.8,4-10.2,4.4-14.1,4.4h-4.8V173.7z M737,217.9h10c8.8,0,13.5-1.9,18.1-5.7
		c3.6-3,8.7-8.6,8.7-18.9c0-8.9-3.9-15.2-8.4-18.9c-6.2-5.3-13.2-5.8-18.2-5.8H737V217.9z M685.3,182.7c-1-1.3-2-2.7-2-4.9
		c0-3.1,2.4-5.4,5.5-5.4c2.6,0,5.3,1.6,5.3,5.1c0,1.7-0.5,3.5-3.3,5.7l-3.3,2.5L685.3,182.7z M697.2,206.9
		c-1.9,1.8-7.4,6.8-12.7,6.8c-5.1,0-8.7-3.8-8.7-8.7c0-3.8,2.1-5.8,3.5-7.1s3.3-2.9,7-5.1L697.2,206.9z M706.6,196.5
		c-1.4,1.9-3,3.7-5.6,6.5l-10.3-13.2c3.2-2.7,2.7-2.1,4-3.2c3.9-3.4,4.6-6.7,4.6-9c0-5-3.6-9.9-10.4-9.9c-7.1,0-10.7,5.3-10.7,10.4
		c0,3.3,1.6,6.3,4.9,10.6c-1,0.7-5.7,3.6-8.3,6.1c-1.6,1.6-4.4,4.9-4.4,10.2c0,7.8,6.2,13.7,14.3,13.7c5.6,0,11.6-3.5,15.9-7.8
		l5.3,6.9h6.8l-8.3-10.7c3-3.1,5-5.5,6.3-7.3L706.6,196.5z M619.3,217.9h5.3v-16.1c0-2.2,0.1-5.8,2.2-8.3c1.6-1.9,3.6-2.4,5.4-2.4
		c2.4,0,4,0.9,5,2.2c1.3,1.6,1.4,3.8,1.4,5.6v18.9h5.3v-19c0-3.4-0.2-5.9-1.8-8.2c-1.9-2.7-5.2-4.2-8.8-4.2c-5.1,0-7.8,3-8.8,4.3
		v-3.6h-5.3L619.3,217.9L619.3,217.9z M594,191.1c2.7,0,5.3,1,7,2.7c1.9,1.9,3.3,5,3.3,8.7s-1.4,6.9-3.5,8.9
		c-1.7,1.7-3.9,2.6-6.7,2.6s-4.9-1-6.6-2.5c-3-2.7-3.5-6.4-3.5-9c0-2.5,0.5-5.8,3.1-8.4C588.5,192.5,590.7,191.1,594,191.1z
		 M603.9,191.5c-2.4-3.2-6-5.1-10.5-5.1c-4.1,0-7.9,1.6-10.5,4.1c-2.2,2.2-4.4,5.9-4.4,11.9c0,6.2,2.4,10.1,4.4,12.1
		c2.4,2.4,6,4.1,10.5,4.1c5.4,0,8.7-2.9,10.5-5.2v4.4c0,2.6-0.1,5.3-1.7,7.8c-1.8,3-4.4,4.3-8.1,4.3c-2.4,0-5.2-0.5-7.4-3
		c-1.3-1.5-2.4-3.8-2.4-6.4H579c0,4.5,1.9,7.8,4,9.9c2.1,2.1,5.7,4.1,11,4.1c5.8,0,10-2.6,12.3-5.7c3-4,3-8.7,3-12.1v-30H604
		L603.9,191.5L603.9,191.5z M563.9,175.5c0,2.1,1.7,3.8,3.8,3.8s3.8-1.7,3.8-3.8s-1.7-3.8-3.8-3.8S563.9,173.4,563.9,175.5z
		 M565,187.1v30.7h5.3v-30.7H565z M555.9,191.9c-2.4-5.3-6.8-5.6-8.4-5.6c-5.2,0-9,3.2-9,8.6c0,1.6,0.2,3,1.4,4.5
		c1.4,1.7,3.8,2.9,7.5,4.5c2.9,1.3,5,2.2,5,5.1c0,2.3-1.6,4.9-5,4.9c-3.8,0-5.6-3.4-6.2-5l-4.6,1.9c2.6,7.7,9.5,7.8,10.7,7.8
		c5.9,0,10.6-3.6,10.6-10.1c0-1.7-0.3-3.3-1.6-5c-1.2-1.5-3.3-2.9-7.7-4.7c-3.5-1.5-5-2.1-5-4.4c0-2.4,1.8-3.5,3.7-3.5
		c2,0,3.6,1.3,4.3,3.1L555.9,191.9z M507.2,199.1c0.8-4.6,4.5-8,9-8s8.1,3.2,9,8H507.2z M526.1,207.6c-0.7,1.5-1.8,3-3.2,4.2
		c-1.8,1.5-3.8,2.2-6.3,2.2c-5.3,0-9.7-4.1-9.8-10.4h23.9c0.1-4.1-1-8.8-2.9-11.5s-5.6-5.6-11.6-5.6c-9.3,0-14.9,7.1-14.9,16.3
		c0,11.4,7.8,16.1,15.2,16.1c3.9,0,7.4-1.3,10.2-3.8c1.6-1.4,2.9-3.3,3.8-5L526.1,207.6z M463.3,173.7h4.8
		c12.5,0,20.8,7.7,20.8,19.5c0,7-3,11.9-6.7,15c-4.8,4-10.2,4.4-14.1,4.4h-4.8L463.3,173.7L463.3,173.7z M457.9,217.9h10
		c8.8,0,13.5-1.9,18.1-5.7c3.6-3,8.7-8.6,8.7-18.9c0-8.9-3.9-15.2-8.4-18.9c-6.2-5.3-13.2-5.8-18.2-5.8H458v49.3H457.9z M415.7,214
		c-6.3,0-10.3-5.1-10.3-11.4c0-7.4,5.3-11.5,10.2-11.5c5,0,10.1,4,10.1,11.5C425.7,208.8,421.9,214,415.7,214z M405.7,213.6
		c2.3,3,5.8,5.2,10.7,5.2c9.3,0,14.7-7.6,14.7-16.1c0-8.3-5.3-16.3-15-16.3c-2.2,0-6.9,0.5-10.5,5v-27.5h-5.3v54h5.3L405.7,213.6
		L405.7,213.6z M368.7,199.1c0.8-4.6,4.5-8,9-8s8.1,3.2,9,8H368.7z M387.6,207.6c-0.7,1.5-1.8,3-3.2,4.2c-1.8,1.5-3.8,2.2-6.3,2.2
		c-5.3,0-9.7-4.1-9.8-10.4h23.9c0.1-4.1-1-8.8-2.9-11.5s-5.6-5.6-11.6-5.6c-9.3,0-14.9,7.1-14.9,16.3c0,11.4,7.8,16.1,15.2,16.1
		c3.9,0,7.4-1.3,10.2-3.8c1.6-1.4,2.9-3.3,3.8-5L387.6,207.6z M292.4,168.5l18.9,52l15.5-39.5l14.5,39.5l20.7-52h-6.1l-14.4,37
		L327,166l-15.5,39.5l-13-37H292.4z"/>
</g>
</svg>
